<svg id="Layer_1" data-name="Layer 1" xmlns="http://www.w3.org/2000/svg" viewBox="0 0 102.37 77"><defs><style>.cls-1{isolation:isolate;}.cls-2{fill:#fff;}</style></defs><g class="cls-1"><path class="cls-2" d="M6.09,73.54h-4V77.3H.82V68.88H2.07v3.6h4v-3.6H7.35V77.3H6.09Z" transform="translate(-0.82 -0.47)"/><path class="cls-2" d="M13.77,68.72a4.38,4.38,0,1,1,0,8.75,4.38,4.38,0,1,1,0-8.75Zm0,7.62a3.08,3.08,0,0,0,3.07-3.23,3.07,3.07,0,1,0-6.12,0A3.07,3.07,0,0,0,13.77,76.34Z" transform="translate(-0.82 -0.47)"/><path class="cls-2" d="M25.46,70H23V77.3H21.71V70H19.22V68.88h6.24Z" transform="translate(-0.82 -0.47)"/><path class="cls-2" d="M32.49,76.25v1H27.26V68.88h5.08V70H28.52v2.53h3.16v1.06H28.52v2.71Z" transform="translate(-0.82 -0.47)"/><path class="cls-2" d="M39.58,77.3h-5V68.88h1.26v7.37h3.7Z" transform="translate(-0.82 -0.47)"/><path class="cls-2" d="M48.65,71.32a1.28,1.28,0,0,0-1.18-.91,1,1,0,0,0-1,.92A1.88,1.88,0,0,0,47,72.47l2.08,2.41,1.36-1.28.77.81-1.39,1.3,1.39,1.59H49.72L49,76.49l-.44.36A2.7,2.7,0,0,1,45,76.73a2.29,2.29,0,0,1,.21-3.35l.64-.59-.13-.19a2.11,2.11,0,0,1-.45-1.35,2,2,0,0,1,2.11-1.91,2.26,2.26,0,0,1,2.23,1.56ZM47.83,76l.42-.36-1.72-2-.57.52a1.24,1.24,0,0,0-.1,1.76A1.43,1.43,0,0,0,47.83,76Z" transform="translate(-0.82 -0.47)"/><path class="cls-2" d="M60.65,73.87,63,77.3H61.42l-2-3.07a6.72,6.72,0,0,1-1.35,0V77.3H56.8V68.94c3.76-.63,5.49.53,5.49,2.52A2.6,2.6,0,0,1,60.65,73.87Zm-2.6-.74c2,.24,2.94-.53,2.94-1.68s-.94-1.79-2.94-1.47Z" transform="translate(-0.82 -0.47)"/><path class="cls-2" d="M70,76.25v1H64.75V68.88h5.07V70H66v2.53h3.15v1.06H66v2.71Z" transform="translate(-0.82 -0.47)"/><path class="cls-2" d="M76.64,70.42a4.4,4.4,0,0,0-1.92-.58c-1,0-1.57.5-1.57,1.15s.77,1.14,1.76,1.52c1.83.7,2.49,1.56,2.46,2.66,0,1.47-1.35,2.31-2.91,2.3a4.4,4.4,0,0,1-2.71-.9l.5-1a3.74,3.74,0,0,0,2.14.77c.92,0,1.72-.47,1.72-1.18s-.87-1.17-2-1.68c-1.37-.6-2.21-1.28-2.21-2.52a2.43,2.43,0,0,1,2.73-2.27,6,6,0,0,1,2.44.64Z" transform="translate(-0.82 -0.47)"/><path class="cls-2" d="M83.44,68.72A4.38,4.38,0,1,1,79,73.11,4.32,4.32,0,0,1,83.44,68.72Zm0,7.62a3.09,3.09,0,0,0,3.08-3.23,3.07,3.07,0,1,0-6.13,0A3.07,3.07,0,0,0,83.44,76.34Z" transform="translate(-0.82 -0.47)"/><path class="cls-2" d="M93.74,73.87l2.34,3.43H94.52l-2-3.07a6.61,6.61,0,0,1-1.34,0V77.3H89.89V68.94c3.77-.63,5.49.53,5.49,2.52A2.59,2.59,0,0,1,93.74,73.87Zm-2.59-.74c2,.24,2.94-.53,2.94-1.68s-1-1.79-2.94-1.47Z" transform="translate(-0.82 -0.47)"/><path class="cls-2" d="M103.18,70h-2.49V77.3H99.43V70H97V68.88h6.23Z" transform="translate(-0.82 -0.47)"/></g><g id="Group_29" data-name="Group 29"><g id="Group_26" data-name="Group 26"><path id="Path_1" data-name="Path 1" class="cls-2" d="M54.91.48A11,11,0,0,1,60.56,2a11.24,11.24,0,0,1-11.3,0h0A11.25,11.25,0,0,1,54.91.47M60.74,2.1a11.72,11.72,0,0,1,5.6,10,11.44,11.44,0,0,1-4.07-4.22A11.79,11.79,0,0,1,60.74,2.1m5.6,10.16a11.73,11.73,0,0,1-5.61,10,11.91,11.91,0,0,1,1.54-5.74,11.44,11.44,0,0,1,4.07-4.22M60.57,22.32a11.24,11.24,0,0,1-11.3,0h0a11.24,11.24,0,0,1,11.3,0m-11.42-.06a11.72,11.72,0,0,1-5.67-10h0a11.68,11.68,0,0,1,5.67,10ZM43.48,12.09a11.76,11.76,0,0,1,5.67-10h0a11.69,11.69,0,0,1-5.67,10Zm.11.07a11.23,11.23,0,0,0,11.24,0,11.18,11.18,0,0,0-11.24,0m11.27-.11a11.71,11.71,0,0,0-5.6-9.92A11.8,11.8,0,0,0,50.8,7.84a11.54,11.54,0,0,0,4.06,4.21m5.76-10a11.71,11.71,0,0,0-5.66,10,11.68,11.68,0,0,0,5.66-10M55.06,12.16a11.23,11.23,0,0,0,11.24,0,11.18,11.18,0,0,0-11.24,0m-5.79,10a11.69,11.69,0,0,0,5.59-9.91,11.52,11.52,0,0,0-4.06,4.2,11.82,11.82,0,0,0-1.53,5.71m5.7-10a11.66,11.66,0,0,0,5.66,10,11.73,11.73,0,0,0-5.66-10" transform="translate(-0.82 -0.47)"/><path id="Path_2" data-name="Path 2" class="cls-2" d="M84.2,42.93a2.07,2.07,0,0,1-.2.64c-.14.32-.32.71-.56,1.17s-.49.95-.78,1.48-.58,1.06-.88,1.59l-.86,1.51c-.13.23-.29.47-.46.72a4.16,4.16,0,0,1-.61.72,2.7,2.7,0,0,1-.76.54,2.24,2.24,0,0,1-1,.22.7.7,0,0,1-.65-.29,1.91,1.91,0,0,1-.21-.81,3.83,3.83,0,0,1,.16-1.26,13,13,0,0,1,.6-1.72,14.94,14.94,0,0,1,1-1.86,11.6,11.6,0,0,1,1.25-1.72,6.54,6.54,0,0,1,1.47-1.25c.55-.33,1.88-.88,2.34,0a.81.81,0,0,1,.12.37m-13.11.43a1.52,1.52,0,0,1-.21.93,2.82,2.82,0,0,1-.66.8,5.59,5.59,0,0,1-.9.63,4.81,4.81,0,0,1-2.2.62c-.43,0-.82,0-1.19,0a5.15,5.15,0,0,1,.78-1.11A12,12,0,0,1,67.89,44a8.88,8.88,0,0,1,1.28-.93,2.38,2.38,0,0,1,1.06-.38,1.13,1.13,0,0,1,.57.12.59.59,0,0,1,.28.51m5.17-11.72a3.58,3.58,0,0,1-.25,1.3,11.47,11.47,0,0,1-.8,1.7A18.21,18.21,0,0,1,74,36.54a20.4,20.4,0,0,1-1.58,1.9,16.09,16.09,0,0,1-1.81,1.69,10.48,10.48,0,0,1-1.93,1.29,8.48,8.48,0,0,1,.54-1.37c.27-.55.58-1.16,1-1.81s.78-1.33,1.2-2,.88-1.34,1.32-2,.88-1.19,1.28-1.7A11,11,0,0,1,75,31.39a1.36,1.36,0,0,1,.74-.45.38.38,0,0,1,.35.2,1.2,1.2,0,0,1,.13.5M52.18,54.38a3.39,3.39,0,0,1-.2.53c-.1.28-.26.63-.44,1s-.42.85-.68,1.32a14.17,14.17,0,0,1-.86,1.4,10.73,10.73,0,0,1-1,1.27,5,5,0,0,1-1.19.91,2.61,2.61,0,0,1-1.3.35,1.94,1.94,0,0,1-1.17-.35,1.21,1.21,0,0,1-.53-.88,2.17,2.17,0,0,1,.37-1.3,6.37,6.37,0,0,1,1.17-1.42A10.65,10.65,0,0,1,48,55.9a12.14,12.14,0,0,1,2-1,7.71,7.71,0,0,1,2.12-.5M62.71,37.77a1.29,1.29,0,0,0-.45-.92,1.46,1.46,0,0,0-1-.31,2,2,0,0,0-1,.26,1.9,1.9,0,0,0-.7.68,1.4,1.4,0,0,0-.22.89,1.3,1.3,0,0,0,.48.89,1.61,1.61,0,0,0,1,.37,2,2,0,0,0,1-.26,1.9,1.9,0,0,0,.66-.69,1.61,1.61,0,0,0,.19-.91m-14.9,5.16a2.05,2.05,0,0,1-.19.64c-.13.32-.32.71-.56,1.17l-.77,1.48c-.29.53-.59,1.06-.89,1.59l-.86,1.51c-.13.22-.28.47-.45.72a5.28,5.28,0,0,1-.61.72,3.15,3.15,0,0,1-.77.54,2.24,2.24,0,0,1-1,.22.72.72,0,0,1-.64-.29,1.79,1.79,0,0,1-.22-.81,4.11,4.11,0,0,1,.16-1.26,13,13,0,0,1,.6-1.72,16.56,16.56,0,0,1,1-1.87,13.86,13.86,0,0,1,1.25-1.71,6.5,6.5,0,0,1,1.47-1.25,3.12,3.12,0,0,1,1.6-.48.87.87,0,0,1,.45.12.92.92,0,0,1,.29.3,1.07,1.07,0,0,1,.13.38m8,2.15c-.32.36-.65.71-1,1.06-.67.71-1.35,1.39-2,2s-1.34,1.21-2,1.71a12.78,12.78,0,0,1-1.65,1.19,2.75,2.75,0,0,1-1.17.45,1,1,0,0,1-.65-.22.69.69,0,0,1-.24-.45,1.53,1.53,0,0,1,0-.37,1.9,1.9,0,0,1,.15-.46,6.11,6.11,0,0,1,.34-.7l4.2-8.19a1.37,1.37,0,0,0-.42.29l-.4.4a.55.55,0,0,1-.35.2,5.64,5.64,0,0,1-.8-.1,5.3,5.3,0,0,0-.8-.1.78.78,0,0,0-.36.13,2.18,2.18,0,0,0-.28.25l-.1.12a2.61,2.61,0,0,0-.63-.51,2.12,2.12,0,0,0-.65-.24,4.35,4.35,0,0,0-.72,0,8,8,0,0,0-6.2,2.84l-.42.3c-.35.23-.71.44-1.08.66s-.72.4-1,.55a6.15,6.15,0,0,1-.84.34,11,11,0,0,0-.35-2,6,6,0,0,0-.72-1.62,8.46,8.46,0,0,0-1.21-1.46,18.74,18.74,0,0,0,2.82-1.6,4.69,4.69,0,0,0,1.32-1.67,4.1,4.1,0,0,0,.25-2,3.87,3.87,0,0,0-.41-1.38,6,6,0,0,0-.83-1.17,10.79,10.79,0,0,0-1-1c-.35-.31-.92-.68-1.24-.95C45.22,27.44,46,35.18,46.9,34.14a1.42,1.42,0,0,0,.36-1,2.26,2.26,0,0,0-.75-1.36c-1.8-1.74-3.83-2-6-2a14.55,14.55,0,0,0-2.64.22,12,12,0,0,0-1.87.49c-.52.18-1,.35-1.39.48a28.29,28.29,0,0,0-2.83-1.06C29,29,20.76,28.54,19,31c-.6.84-.3,1.25.63,2,1.3,1,4,2.8,1.08-.52-.29-.33-.43-.83-.17-1.08,2.1-2,10.18-1.42,12.67-.11a16,16,0,0,0-4.85,3.28,15.54,15.54,0,0,0-2.12,2.6,16.93,16.93,0,0,0-1.93,4.4c-.92,2.85-3.58,7.73-6.9,9.2l-1.74.77c-.21.1.6.61,1.76.4,5.06-.92,7.22-4.1,9.6-7.83,1.4-2.25,1.4-4.19,2.11-6.47a12.1,12.1,0,0,1,5.3-5.91c1.8.73,2.08,2.57,2.22,4.06s-1.19,4.31-2.94,4.6a2.4,2.4,0,0,0-.29-.19,4.63,4.63,0,0,0-.7-.36,2.73,2.73,0,0,0-.89-.19,2,2,0,0,0-.49.08,1.09,1.09,0,0,0-.47.23.47.47,0,0,0-.18.43.76.76,0,0,0,.32.5,2.13,2.13,0,0,0,.63.34,2.41,2.41,0,0,0,.64.12h.43l.26,0,.29,0a10.33,10.33,0,0,1,.43,2.41,6.39,6.39,0,0,1-.2,2A2.63,2.63,0,0,1,32.78,47c-.38,0-.85,0-1.4.06a17.45,17.45,0,0,0-1.77.2,14.69,14.69,0,0,0-1.86.41,8.11,8.11,0,0,0-1.64.68,3.27,3.27,0,0,0-1.14,1,2.11,2.11,0,0,0-.35,1.4,1.45,1.45,0,0,0,.8,1.16,3.87,3.87,0,0,0,1.92.44,11.86,11.86,0,0,0,3.5-.46,9.44,9.44,0,0,0,2.72-1.29,8.58,8.58,0,0,0,1.9-1.81,7.42,7.42,0,0,0,1.11-2,15.93,15.93,0,0,0,2.13-1c.25-.14.49-.28.73-.44a7.52,7.52,0,0,0-.68,1.47,5.12,5.12,0,0,0-.23,1.9A4.91,4.91,0,0,0,39,50.55a2.81,2.81,0,0,0,1,1.1A2.59,2.59,0,0,0,41.4,52a3.5,3.5,0,0,0,2.25-.76,6,6,0,0,0,1.15-1.2,6.9,6.9,0,0,0,.74,1,2.79,2.79,0,0,0,.94.69,3.58,3.58,0,0,0,1.37.25,3.74,3.74,0,0,0,1.74-.6,15,15,0,0,0,2.23-1.66,33.69,33.69,0,0,0,2.56-2.46c.25-.25.49-.51.73-.78-.18.38-.35.77-.53,1.16-.38.85-.74,1.76-1.1,2.76s-.73,2.08-1.09,3.28a14.51,14.51,0,0,0-3.2,1.07,12.55,12.55,0,0,0-2.62,1.61,7.69,7.69,0,0,0-1.74,1.86,2.89,2.89,0,0,0-.54,1.82,2.08,2.08,0,0,0,.56,1.25,3.4,3.4,0,0,0,1.29.86,4.86,4.86,0,0,0,1.77.32A4.7,4.7,0,0,0,50.14,62a5.11,5.11,0,0,0,1.6-1.36,9.29,9.29,0,0,0,1.15-1.88c.31-.68.58-1.38.82-2.08l.65-2A10,10,0,0,1,55,53.19a20.65,20.65,0,0,0,2.12-1.6c.78-.66,1.6-1.4,2.45-2.23s1.71-1.67,2.56-2.54c.43-.44.84-.86,1.24-1.29l-3.53,6.92c.61-.24,3-.63,3.34-1a3.16,3.16,0,0,0,.58-.9c.19-.4.44-.91.73-1.53s.71-1.35,1.22-2.2c.46,0,.89,0,1.26,0s.62,0,.93,0,.35.11.37.24a1.93,1.93,0,0,1-.16.74c-.12.31-.26.64-.42,1s-.29.7-.4,1a2.06,2.06,0,0,0-.17.81,1.31,1.31,0,0,0,.3.68,1.75,1.75,0,0,0,.65.46,2.15,2.15,0,0,0,.83.16,3.1,3.1,0,0,0,1.45-.43,9.69,9.69,0,0,0,1.58-1.13,21.52,21.52,0,0,0,1.61-1.56q.78-.84,1.5-1.71a4.87,4.87,0,0,0,.38,3.37,2.72,2.72,0,0,0,1,1.1,2.59,2.59,0,0,0,1.36.36,3.83,3.83,0,0,0,1.12-.15,3.72,3.72,0,0,0,1.13-.6,6.28,6.28,0,0,0,1.16-1.2c1.78,3,4.32,2.23,6.58.3H86.71a3.1,3.1,0,0,1-2,1.24c-.79,0-1.5-.34-1.17-1.1,1.55-3.59,3.3-6.65,4.69-9.35-.86.35-2.56.43-3.13.82a1.32,1.32,0,0,0-.28.25l-.11.12a2.56,2.56,0,0,0-.62-.51c-1.8-1-4.86.24-6.34,1.39a7.78,7.78,0,0,0-1.64,1.7,6.72,6.72,0,0,0-.58,1c-.27.31-.55.64-.86,1-.43.51-.9,1-1.37,1.53s-.93,1-1.38,1.4a9.84,9.84,0,0,1-1.21,1,1.71,1.71,0,0,1-.86.4.6.6,0,0,1-.3-.06.23.23,0,0,1-.14-.2,1.18,1.18,0,0,1,.19-.58c.13-.26.29-.55.47-.86a8.77,8.77,0,0,0,.46-.92,1.71,1.71,0,0,0,.18-.77,1,1,0,0,0-.11-.39,1.87,1.87,0,0,0-.27-.4c-.11-.14-.25-.32-.42-.5a10.7,10.7,0,0,0,2.82-1.86,2.33,2.33,0,0,0,.81-1.84,1.32,1.32,0,0,0-.5-1,1.83,1.83,0,0,0-1.13-.35,4.13,4.13,0,0,0-1.38.31,10.91,10.91,0,0,0-1.64.82,17.42,17.42,0,0,0-1.71,1.2l.12-.2.3-.46.35-.55c.11-.17.21-.31.29-.42a12.07,12.07,0,0,0,1.76-1c.74-.5,1.46-1,2.15-1.6a29.14,29.14,0,0,0,2.21-2,22.36,22.36,0,0,0,1.94-2.18,11,11,0,0,0,1.34-2.17A4,4,0,0,0,78,31.4a.78.78,0,0,0-.3-.53,1.83,1.83,0,0,0-.62-.36,2,2,0,0,0-.72-.14,3.15,3.15,0,0,0-1.59.56,11.47,11.47,0,0,0-1.87,1.46c-.65.62-1.32,1.32-2,2.1S69.61,36.1,69,37s-1.27,1.69-1.85,2.52-1.1,1.6-1.56,2.32-.85,1.32-1.15,1.82c-.16.26-.29.49-.39.68l-.27.28L62.42,45.9l-1.81,1.8c-.67.66-1.35,1.31-2,2s-1.34,1.24-2,1.77-1.13,1-1.56,1.27l5.82-11.55a1,1,0,0,0-.39.19c-1,.87-.93.52-2.2.47a1,1,0,0,0-.72.34A4.7,4.7,0,0,0,57,43c-.41.7-.8,1.41-1.17,2.12M32.71,47.55l-.3.41a8.94,8.94,0,0,1-.6.83,10.43,10.43,0,0,1-.88,1,7.86,7.86,0,0,1-1.15,1,6.46,6.46,0,0,1-1.4.74,4.77,4.77,0,0,1-1.63.27,2.61,2.61,0,0,1-.79-.12,1.42,1.42,0,0,1-.61-.34.82.82,0,0,1-.28-.54,1.83,1.83,0,0,1,.41-1.35,3.56,3.56,0,0,1,1.3-.94,8.14,8.14,0,0,1,1.87-.59,16.31,16.31,0,0,1,2.08-.31c.7,0,1.37-.08,2-.07m.4-6.79a2.61,2.61,0,0,1-.27.06,2.32,2.32,0,0,1-.59.07,1,1,0,0,1-.33-.06,1.1,1.1,0,0,1-.32-.17.36.36,0,0,1-.15-.24c0-.2.13-.3.43-.3a1.22,1.22,0,0,1,.59.17,2.21,2.21,0,0,1,.45.3l.19.17" transform="translate(-0.82 -0.47)"/></g></g></svg>