<svg xmlns="http://www.w3.org/2000/svg" width="25.164" height="25.725" viewBox="0 0 25.164 25.725">
  <path id="Path_5748" data-name="Path 5748" d="M645.02,81.44a12.306,12.306,0,0,1,6.227,1.685,12.361,12.361,0,0,1-12.444,0V83.12a12.32,12.32,0,0,1,6.217-1.68m6.411,1.793A12.919,12.919,0,0,1,657.6,94.194a12.668,12.668,0,0,1-4.487-4.639,13.036,13.036,0,0,1-1.687-6.323M657.6,94.413a12.92,12.92,0,0,1-6.173,10.962,13.045,13.045,0,0,1,1.687-6.322,12.708,12.708,0,0,1,4.487-4.641m-6.357,11.072a12.372,12.372,0,0,1-12.444,0v-.007a12.361,12.361,0,0,1,12.444,0m-12.565-.07a12.9,12.9,0,0,1-6.242-11.039l0,0a12.869,12.869,0,0,1,6.245,11.039Zm-6.242-11.183a12.907,12.907,0,0,1,6.242-11.04l.007,0a12.868,12.868,0,0,1-6.245,11.038Zm.123.073a12.317,12.317,0,0,0,12.369,0,12.307,12.307,0,0,0-12.369,0m12.4-.12a12.875,12.875,0,0,0-6.158-10.916,13.045,13.045,0,0,0,1.689,6.285,12.691,12.691,0,0,0,4.469,4.631m6.347-10.965a12.88,12.88,0,0,0-6.231,11.007,12.871,12.871,0,0,0,6.231-11.007m-6.127,11.085a12.321,12.321,0,0,0,12.37,0,12.31,12.31,0,0,0-12.37,0m-6.379,11.037a12.883,12.883,0,0,0,6.158-10.918,12.7,12.7,0,0,0-4.469,4.63,13.039,13.039,0,0,0-1.689,6.288m6.274-10.964a12.869,12.869,0,0,0,6.231,11.007,12.877,12.877,0,0,0-6.231-11.007" transform="translate(-632.439 -81.44)" fill="#ae9560"/>
</svg>
